# xmcd
#
# Track frame offsets:
#	150
#	13280
#	24967
#	44135
#	58005
#	68972
#	81690
#	97900
#	109890
#	124925
#
# Disc length: 1870 seconds
#
# Revision: 1
# Processed by: cddbd v1.4PL0 Copyright (c) Steve Scherf et al.
# Submitted via: EasyCDDAExtractor 6.0.0.1
#
DISCID=8f074c0a
DTITLE=Doug Kershaw - Easy
DYEAR=1900
DGENRE=Country
TTITLE0=Make It Easy On Yourself
TTITLE1=On The Bayou
TTITLE2=Cajun Capers
TTITLE3=Go Right On
TTITLE4=The Country Singer
TTITLE5=Sing Along
TTITLE6=I Care
TTITLE7=Do What You Gotta Do
TTITLE8=Love City
TTITLE9=I Might Cry
EXTD=
EXTT0=
EXTT1=
EXTT2=
EXTT3=
EXTT4=
EXTT5=
EXTT6=
EXTT7=
EXTT8=
EXTT9=
PLAYORDER=
